<svg xmlns="http://www.w3.org/2000/svg" width="220" height="110.083" viewBox="0 0 220 110.083"><g fill="#FFF"><path d="M32.405 95.757a10.684 10.684 0 0 1-2.342 5.61c-1.327 1.65-3.016 3.045-5.065 4.183-2.05 1.137-4.362 2.002-6.94 2.594s-5.23.888-7.962.888c-1.015 0-1.962-.055-2.84-.164s-1.67-.242-2.37-.397a30.84 30.84 0 0 1-1.787-.443c-.49-.14-.83-.257-1.026-.35-.35-.157-.634-.352-.85-.585s-.34-.57-.38-1.005c-.04-.25-.06-.444-.06-.584 0-.14.02-.288.06-.444a6.42 6.42 0 0 1 .205-.632c.097-.265.223-.63.38-1.098.078-.28.38-1.16.908-2.64.527-1.48 1.16-3.29 1.903-5.423s1.553-4.448 2.43-6.94S8.4 83.416 9.22 81.08c.82-2.336 1.56-4.447 2.225-6.333.664-1.885 1.152-3.28 1.464-4.184a32.15 32.15 0 0 0-3.22 2.104c-.586.436-1.16.584-1.727.444-.566-.14-.966-.52-1.2-1.144a7.57 7.57 0 0 1-.176-.982c-.04-.28-.03-.6.03-.958.058-.358.204-.71.438-1.052a37.352 37.352 0 0 1 3.777-1.59c1.23-.435 2.41-.825 3.54-1.168.235-.53.5-.935.79-1.215.294-.28.596-.466.91-.56.31-.093.643-.125.994-.093.35.03.722.078 1.113.14.86.156 1.425.374 1.698.654.547-.06 1.073-.108 1.58-.14.508-.03 1.035-.046 1.582-.046 2.264 0 4.235.234 5.914.7 1.68.468 3.056 1.1 4.13 1.894 1.072.795 1.843 1.722 2.312 2.78a6.59 6.59 0 0 1 .527 3.367c-.118 1.028-.46 2.096-1.026 3.202s-1.317 2.197-2.254 3.272a26.35 26.35 0 0 1-3.28 3.13 28.333 28.333 0 0 1-4.156 2.782c1.21.56 2.284 1.215 3.22 1.963.937.748 1.718 1.558 2.342 2.43.625.874 1.073 1.762 1.347 2.665.272.903.37 1.775.292 2.617zM12.028 87.39a134.96 134.96 0 0 0-1.64 5.47 174.236 174.236 0 0 0-1.64 5.865l-1.874 7.128c.234.156.547.265.937.327l1.172.187c.43.062.898.093 1.405.093 1.757 0 3.542-.288 5.358-.865s3.484-1.395 5.006-2.454a14.97 14.97 0 0 0 3.836-3.855c1.034-1.51 1.65-3.202 1.844-5.072.078-.84.01-1.597-.205-2.267a6.117 6.117 0 0 0-.937-1.823 8.005 8.005 0 0 0-1.405-1.45 10.724 10.724 0 0 0-1.67-1.097c-1.795.78-3.766 1.433-5.913 1.963-.703.155-1.308.178-1.815.07-.507-.11-.937-.28-1.288-.515a2.73 2.73 0 0 1-.82-.818c-.193-.31-.31-.607-.35-.887zm.996-3.085c-.078.312-.166.623-.263.935-.097.312-.204.64-.32.982.467-.405 1.258-.78 2.37-1.122s2.176-.514 3.19-.514c.548 0 1.074.023 1.582.07.507.047.995.1 1.464.164a15.658 15.658 0 0 0 3.162-2.174 18.825 18.825 0 0 0 2.664-2.85c.76-1.014 1.386-2.05 1.874-3.11s.79-2.04.908-2.944c.234-2.15-.224-3.747-1.376-4.79-1.152-1.045-2.78-1.567-4.89-1.567-1.404 0-2.868.203-4.39.608-.313.81-.704 1.815-1.172 3.015s-.966 2.516-1.493 3.95c-.527 1.433-1.083 2.945-1.67 4.534a100.526 100.526 0 0 0-1.64 4.813zM36.62 99.403a9520.32 9520.32 0 0 0 4.13-13.883c1.033-3.49 1.824-6.155 2.37-7.993a707.91 707.91 0 0 0 1.288-4.534c.117-.592.215-1.17.293-1.73.08-.5.118-1.013.118-1.543s-.06-1.013-.176-1.45a5.07 5.07 0 0 1 1.025-.373c.37-.093.732-.17 1.083-.234.43-.093.86-.17 1.288-.234s.82-.094 1.17-.094c.313 0 .606.023.88.07s.448.148.526.304c.234.156.342.467.322.935-.02.467-.068.95-.146 1.45-.156.59-.332 1.23-.527 1.915a293.46 293.46 0 0 0-1.932 5.796c-.702 2.15-1.648 5.08-2.84 8.788-1.19 3.708-2.683 8.383-4.478 14.023-.195.156-.43.265-.703.327s-.528.093-.762.093a8.92 8.92 0 0 1-.878-.047 4.275 4.275 0 0 1-.82-.28 3.873 3.873 0 0 1-.703-.49 1.83 1.83 0 0 1-.526-.817zM57.876 100.9c-1.483 0-2.693-.188-3.63-.562-.937-.374-1.67-.834-2.196-1.38-.527-.544-.898-1.136-1.113-1.775-.215-.64-.322-1.223-.322-1.753 0-.935.098-1.924.293-2.968s.43-2.01.703-2.898c.274-.888.518-1.644.733-2.267.215-.623.36-1.013.44-1.17a8.25 8.25 0 0 1 1.375-2.36c.566-.67 1.356-1.13 2.37-1.38.39-.06.8-.124 1.23-.186.352-.03.713-.046 1.084-.046s.712.047 1.025.14c-1.054 2.15-1.883 3.942-2.49 5.376s-1.063 2.602-1.375 3.506c-.35 1.028-.566 1.854-.644 2.477-.195 1.402-.04 2.462.468 3.18.507.716 1.542 1.074 3.103 1.074 1.014 0 1.99-.304 2.927-.91.937-.61 1.796-1.396 2.576-2.362a6.735 6.735 0 0 1-.176-1.543c0-.997.107-1.97.322-2.92.214-.95.467-1.84.76-2.665.293-.826.605-1.566.937-2.22.332-.654.615-1.17.85-1.543.428-.748.82-1.208 1.17-1.38.35-.17.917-.272 1.698-.303.312-.03.576-.038.79-.022.215.016.4.04.556.07.47.093.704.28.704.56 0 .5-.04 1.247-.117 2.245-.078.997-.312 2.026-.703 3.085-.273.873-.537 1.613-.79 2.22s-.498 1.122-.732 1.543A5.8 5.8 0 0 1 69 92.79l-.645.724c.078.935.176 1.683.293 2.244.117.56.263.99.44 1.285.175.296.39.5.643.608s.538.165.85.165c.547 0 1.19-.21 1.932-.63.742-.422 1.513-.95 2.313-1.59s1.6-1.34 2.4-2.103a80.392 80.392 0 0 0 3.894-3.974c.47-.514.762-.834.88-.958.27-.28.535-.452.788-.514.254-.062.46-.04.615.07s.244.28.263.514-.066.49-.26.77c-.782 1.184-1.748 2.438-2.9 3.763-1.15 1.324-2.38 2.548-3.688 3.67s-2.625 2.056-3.952 2.804-2.576 1.122-3.747 1.122c-1.055 0-1.884-.29-2.49-.866-.605-.577-1.122-1.41-1.552-2.5-.898 1.12-1.952 1.986-3.162 2.593-1.21.608-2.557.912-4.04.912z"/><path d="M105.246 90.428a38.466 38.466 0 0 1-3.982 3.997 34.607 34.607 0 0 1-4.714 3.46 27.733 27.733 0 0 1-5.094 2.453c-1.737.623-3.425.935-5.065.935-.858 0-1.785-.164-2.78-.49s-1.903-.835-2.723-1.52c-.82-.686-1.474-1.574-1.962-2.664-.488-1.092-.634-2.416-.44-3.974.157-1.278.655-2.625 1.494-4.043a18.463 18.463 0 0 1 3.102-3.903 17.03 17.03 0 0 1 4.157-2.945c1.54-.78 3.093-1.17 4.654-1.17 1.483 0 2.557.297 3.22.89.664.59.956 1.323.878 2.196-.117.967-.46 1.855-1.025 2.665s-1.24 1.543-2.02 2.197c-.78.654-1.61 1.246-2.49 1.776s-1.707 1.013-2.488 1.45c-.86.466-1.68.91-2.46 1.33s-1.464.803-2.05 1.146c.04.78.216 1.433.528 1.963s.703.958 1.17 1.285c.47.327 1.006.56 1.61.7s1.22.21 1.845.21c1.327 0 2.713-.334 4.157-1.004a29.3 29.3 0 0 0 4.245-2.43c1.386-.95 2.674-1.94 3.865-2.97s2.176-1.915 2.957-2.663c.273-.25.556-.397.85-.444.292-.046.526-.015.702.094s.262.296.262.56c.004.267-.133.57-.406.914zm-14.99-7.198c-.468 0-1.025.187-1.67.56-.643.375-1.277.913-1.902 1.614s-1.21 1.558-1.757 2.57c-.547 1.014-.956 2.175-1.23 3.483.468-.28.976-.57 1.522-.865a29.634 29.634 0 0 0 1.64-.958c1.678-1.028 2.85-1.932 3.512-2.71.664-.78 1.034-1.45 1.113-2.01.078-.593 0-1.022-.234-1.286-.233-.266-.565-.398-.994-.398zM139.324 78.695c-.04-.093.078-.335.35-.725.274-.39.577-.873.91-1.45s.663-1.23.994-1.962a9.42 9.42 0 0 0 .703-2.267 6.27 6.27 0 0 0-.028-2.336c-.156-.78-.566-1.527-1.23-2.244-.39-.374-.966-.584-1.727-.63-.76-.048-1.62.046-2.576.28s-1.953.59-2.987 1.074a16.297 16.297 0 0 0-2.84 1.683c-.86.64-1.59 1.348-2.196 2.127-.605.78-.947 1.574-1.025 2.384a5.1 5.1 0 0 0 .088 1.823 7.32 7.32 0 0 0 .556 1.544c.234.467.488.904.76 1.31s.528.762.762 1.074c.312.436.8.92 1.464 1.45a78.67 78.67 0 0 1 2.166 1.8c.78.67 1.56 1.425 2.342 2.266.78.84 1.464 1.792 2.05 2.85.585 1.06.994 2.245 1.23 3.554.233 1.31.214 2.758-.06 4.347-.43 2.306-1.113 4.23-2.05 5.773-.936 1.543-1.96 2.78-3.073 3.716s-2.235 1.613-3.367 2.033c-1.132.42-2.07.693-2.81.818-.587.093-1.28.18-2.08.257-.8.078-1.64.062-2.518-.047s-1.766-.327-2.664-.654a6.69 6.69 0 0 1-2.4-1.518c-.82-.78-1.465-1.62-1.933-2.524-.43-.78-.75-1.675-.966-2.688-.216-1.013-.108-2.065.32-3.155.313-.28.645-.53.996-.748a8.69 8.69 0 0 1 1.054-.56c.39-.188.8-.36 1.23-.515a25.826 25.826 0 0 1 1.522-.327c.43-.062.888-.1 1.376-.117a4.38 4.38 0 0 1 1.376.164c-.586.53-.995 1.028-1.23 1.496-.156.25-.273.467-.35.654-.157.592-.206 1.3-.147 2.127s.273 1.62.644 2.383c.372.763.91 1.418 1.61 1.963.704.545 1.64.834 2.812.865 2.85.063 5.27-1.713 7.26-5.328.665-1.122 1.006-2.26 1.026-3.412s-.156-2.26-.527-3.32a13.46 13.46 0 0 0-1.463-2.967c-.605-.92-1.22-1.706-1.844-2.36s-1.376-1.364-2.254-2.128a37.863 37.863 0 0 1-2.607-2.5 19.954 19.954 0 0 1-2.313-2.946 9.597 9.597 0 0 1-1.376-3.46c-.312-1.745-.107-3.342.615-4.79s1.697-2.72 2.927-3.81a16.776 16.776 0 0 1 4.04-2.665c1.464-.686 2.762-1.122 3.894-1.31 6.286-.996 10.404-.155 12.356 2.525.82 1.028 1.27 2.12 1.347 3.272.078 1.153-.01 2.22-.263 3.202-.254.982-.566 1.807-.937 2.477-.37.67-.615 1.037-.732 1.1-.233.186-.604.39-1.112.607-.507.218-1.327.42-2.46.608a4.802 4.802 0 0 1-.936.093 8.92 8.92 0 0 1-.878-.047 2.956 2.956 0 0 1-.82-.185z"/><path d="M167.898 88.325c.156-.187.36-.304.615-.35.254-.048.46-.024.615.07.156.092.244.248.263.466.02.22-.087.515-.32.89-.782 1.183-1.806 2.46-3.075 3.832s-2.606 2.657-4.01 3.856c-1.406 1.2-2.773 2.19-4.1 2.968-1.327.78-2.44 1.17-3.338 1.17-1.288 0-2.362-.204-3.22-.61-.86-.404-1.532-.903-2.02-1.495-.488-.59-.83-1.238-1.025-1.94s-.254-1.347-.176-1.94c.04-.498.176-1.394.41-2.687.234-1.293.547-2.79.937-4.487.39-1.698.83-3.52 1.317-5.47a120.964 120.964 0 0 1 1.552-5.632l-1.99.187c-.664.063-1.27.094-1.816.094-1.25 0-2.43-.117-3.542-.35-1.113-.235-1.942-.46-2.49-.68-.31-.124-.448-.303-.41-.537.04-.234.157-.467.352-.7s.44-.437.732-.61.556-.256.79-.256a84.06 84.06 0 0 0 2.4.165c.86.047 1.797.055 2.812.023.742-.03 1.454-.078 2.137-.14.683-.062 1.356-.14 2.02-.234.507-1.496 1.005-2.797 1.493-3.903s.927-1.877 1.317-2.313c.117-.156.38-.288.79-.397.41-.11.85-.187 1.317-.234s.917-.047 1.347 0c.43.047.743.164.938.35.195.25.273.89.234 1.917-.04 1.028-.254 2.337-.644 3.926 1.64 0 3.094.07 4.362.21 1.27.14 2.352.295 3.25.466s1.62.343 2.166.514c.546.17.956.288 1.23.35.273.063.42.22.44.468.02.25-.04.506-.177.77s-.362.492-.674.68c-.312.186-.664.248-1.054.186-.39-.03-.83-.093-1.317-.187a18.72 18.72 0 0 0-1.757-.234 100.98 100.98 0 0 0-2.43-.187 50.406 50.406 0 0 0-3.28-.093c-.233 0-.497.008-.79.023s-.594.023-.907.023c-.155.498-.302.988-.438 1.47s-.322.99-.556 1.52a113.235 113.235 0 0 1-1.757 4.067 163.563 163.563 0 0 1-4.86 9.676c-.235 1.34-.206 2.362.087 3.063s.654 1.208 1.083 1.52c.507.342 1.132.53 1.874.56.586.062 1.298-.1 2.137-.49s1.71-.913 2.607-1.567 1.805-1.37 2.723-2.15 1.766-1.543 2.547-2.29a72.893 72.893 0 0 0 2.05-2.033c.587-.603.997-1.03 1.23-1.28z"/><path d="M194.423 90.85c-.546.622-1.25 1.394-2.108 2.313-.86.92-1.747 1.84-2.664 2.758a52.08 52.08 0 0 1-2.692 2.525c-.878.763-1.61 1.3-2.196 1.613-.39.187-.84.343-1.347.467a8.578 8.578 0 0 1-1.552.234 6.686 6.686 0 0 1-1.493-.07 4.014 4.014 0 0 1-1.23-.398 2.608 2.608 0 0 1-.878-.935c-.195-.343-.38-.795-.556-1.356s-.244-1.26-.205-2.102c-.936 1.246-1.97 2.205-3.102 2.875-1.132.67-2.206 1.16-3.22 1.472-1.17.343-2.342.545-3.513.608-.547 0-1.132-.148-1.757-.444-.625-.297-1.152-.764-1.58-1.403-.43-.64-.704-1.465-.82-2.477-.118-1.013.038-2.22.467-3.623.547-1.9 1.415-3.63 2.606-5.19 1.192-1.557 2.49-2.89 3.895-3.996s2.79-1.94 4.157-2.5 2.498-.81 3.396-.748c1.054.156 1.913.405 2.576.748.546.312.908.77 1.083 1.38.176.607-.146 1.41-.966 2.406a16.817 16.817 0 0 1 1.377-.187c.37-.032.654-.048.85-.048.233 0 .39.016.467.047.04.06.06.194.06.396 0 .203-.06.57-.177 1.098s-.293 1.246-.527 2.15c-.234.904-.547 2.072-.937 3.506-.078.28-.146.538-.205.77-.06.235-.117.468-.176.702-.06.234-.127.506-.205.818l-.293 1.17c-.04.28-.05.583-.03.91.02.328.09.632.206.912s.303.506.556.678c.254.17.615.257 1.083.257.39 0 .897-.195 1.52-.584.626-.39 1.29-.888 1.992-1.496a56.428 56.428 0 0 0 2.196-2.01c.76-.732 1.474-1.44 2.137-2.127.664-.686 1.26-1.293 1.786-1.823s.91-.92 1.143-1.17c.312-.28.625-.443.937-.49s.546.023.703.21.185.467.088.84c-.096.377-.38.813-.847 1.312zm-17.156 2.055c.195-.623.43-1.356.703-2.197.273-.84.507-1.652.703-2.43.195-.78.342-1.427.44-1.94.097-.515.067-.757-.09-.726-.194.03-.41.078-.643.14a3.83 3.83 0 0 1-.76.14c-.313.03-.626.078-.938.14.312-.5.498-.912.556-1.24.06-.326.068-.583.03-.77a.983.983 0 0 0-.235-.514c-.43-.28-1.18-.055-2.254.678-1.074.732-2.314 2.08-3.72 4.043a11.268 11.268 0 0 0-1.404 2.593c-.35.92-.595 1.784-.732 2.594s-.166 1.52-.088 2.127c.078.608.234 1.005.468 1.192.43.343.917.506 1.464.49a4.71 4.71 0 0 0 1.67-.373 10.12 10.12 0 0 0 1.697-.91c.566-.375 1.073-.764 1.522-1.17s.82-.78 1.113-1.122.458-.59.497-.745z"/><path d="M188.275 99.917c-.273.343-.576.57-.908.678s-.625.125-.878.047a.71.71 0 0 1-.5-.49c-.077-.25 0-.562.235-.936l.79-1.262c.41-.654.898-1.44 1.464-2.36.565-.92 1.18-1.917 1.843-2.993a583.092 583.092 0 0 1 1.903-3.06c.605-.967 1.16-1.832 1.67-2.595.506-.763.877-1.317 1.112-1.66a12.73 12.73 0 0 1-.878-.677c-.156-.14-.273-.444-.35-.91-.08-.406.038-.936.35-1.59a9 9 0 0 1 1.23-1.893 8.653 8.653 0 0 1 1.698-1.566c.625-.437 1.23-.655 1.815-.655 1.093 0 1.864.28 2.313.84s.712 1.138.79 1.73c.078.406.04.92-.117 1.544a4.068 4.068 0 0 1-.88 1.682c.118.062.274.132.47.21s.506.117.936.117c.625 0 1.064-.032 1.317-.094.254-.062.654-.093 1.2-.093.664 0 1.21.132 1.64.397.428.265.78.592 1.053.982.273.39.478.81.615 1.262s.225.865.264 1.24c.117.778-.137 1.588-.76 2.43-.626.84-1.387 1.76-2.285 2.758a24.7 24.7 0 0 0-1.64 2.103c-.547.78-.78 1.48-.703 2.103.078.405.215.732.41.982.195.25.742.374 1.64.374.663 0 1.395-.195 2.195-.584.8-.39 1.62-.888 2.46-1.496.838-.608 1.668-1.278 2.488-2.01.82-.732 1.58-1.45 2.284-2.15.703-.7 1.298-1.332 1.786-1.893.488-.56.85-.965 1.083-1.214.195-.25.45-.42.76-.514.313-.093.587-.093.82 0 .235.093.382.28.44.56.06.28-.088.655-.44 1.123-.233.312-.633.81-1.2 1.496a44.13 44.13 0 0 1-2.048 2.29c-.8.842-1.688 1.707-2.664 2.595-.975.888-2 1.698-3.073 2.43a19.714 19.714 0 0 1-3.22 1.8c-1.073.468-2.098.702-3.074.702-1.015 0-1.854-.156-2.518-.467-.664-.312-1.2-.693-1.61-1.145a4.054 4.054 0 0 1-.878-1.496c-.176-.546-.244-1.053-.205-1.52.04-.374.166-.77.38-1.192.216-.42.47-.857.762-1.31s.605-.903.937-1.355c.333-.452.635-.896.91-1.332.663-.903 1.2-1.674 1.61-2.313s.614-1.176.614-1.613c0-.28-.078-.53-.234-.748s-.41-.327-.76-.327c-.235 0-.4.007-.5.022a1.808 1.808 0 0 1-.292.023 5.19 5.19 0 0 0-.41.023c-.176.016-.44.023-.79.023-.507 0-.937-.06-1.288-.186a7.11 7.11 0 0 0-.995-.28c-.156.218-.507.686-1.054 1.402a353.55 353.55 0 0 0-1.902 2.524 885 885 0 0 1-6.324 8.343c-.488.64-.792 1.02-.91 1.144z"/></g><path fill="#FFF" d="M106.708 15.507c2.532 0 5.018.17 7.45.497-2.677-5.696-6.007-10.77-9.77-15.11-1.225 5.557-3.166 10.653-5.63 15.193a55.43 55.43 0 0 1 7.95-.58zM126.828 4.456c-2.93 4.62-6.342 8.623-10.045 11.965a52.955 52.955 0 0 1 13.983 4.655c-.62-5.93-1.984-11.512-3.938-16.62zM143.734 30.35c1.198-5.276 1.73-10.486 1.645-15.49a58.32 58.32 0 0 1-12.463 7.35c4.022 2.245 7.664 4.988 10.817 8.14zM161.308 29.016c-5.514 1.754-10.99 2.62-16.233 2.728 3.517 3.82 6.34 8.173 8.308 12.906 3.465-5.052 6.096-10.332 7.925-15.634zM170.274 51.71c-5.754-.405-11.024-2.503-15.908-4.457a40.803 40.803 0 0 1 2.175 13.123c0 .82-.026 1.634-.074 2.443 5.416-3.443 9.96-6.634 13.808-11.11zM48.267 34.584c4.393 4.003 7.96 8.446 10.71 13.068 1.668-5.082 4.3-9.79 7.716-13.946-6.434-.582-12.638-.243-18.426.878zM56.925 60.432c-.002-3.525.46-6.95 1.31-10.24-5.815 2.237-11.06 5.154-15.637 8.562 5.412 1.616 10.324 3.914 14.646 6.688a41.062 41.062 0 0 1-.32-5.01zM80.21 22.412c-5.85-2.755-11.805-4.565-17.627-5.49 2.634 5.03 4.422 10.178 5.45 15.23 3.434-3.816 7.55-7.11 12.176-9.74zM82.063 5.223c.762 5.648.676 11.116-.09 16.233a52.897 52.897 0 0 1 14.78-5.045c-4.55-4.59-9.53-8.326-14.69-11.187z"/><path fill="#FFF" d="M132.917 22.21a51.146 51.146 0 0 0-2.15-1.136c.066.643.12 1.293.17 1.945a52.804 52.804 0 0 0 1.98-.81zM130.936 23.02c-.204.078-.41.16-.613.235l.655.24c-.01-.16-.03-.316-.042-.476z"/></svg>